<svg width="25" height="25" viewBox="0 0 25 25" fill="none" xmlns="http://www.w3.org/2000/svg">
    <path fill-rule="evenodd" clip-rule="evenodd" d="M2.084 7.292a5.208 5.208 0 0 1 5.208-5.208H17.71a5.208 5.208 0 0 1 5.208 5.208v10.416a5.208 5.208 0 0 1-5.208 5.209H7.292a5.208 5.208 0 0 1-5.208-5.209V7.293zm5.208-3.125a3.125 3.125 0 0 0-3.125 3.125v10.416c0 1.726 1.4 3.126 3.125 3.126H17.71c1.726 0 3.125-1.4 3.125-3.125V7.292c0-1.726-1.4-3.125-3.125-3.125H7.292z" fill="#1656FE"/>
    <path fill-rule="evenodd" clip-rule="evenodd" d="M17.185 8.967a.984.984 0 0 1 .112 1.32l-4.375 5.626a.857.857 0 0 1-.612.335.84.84 0 0 1-.649-.242L9.036 13.45a.985.985 0 0 1-.058-1.324.835.835 0 0 1 1.236-.063l1.949 1.898 3.79-4.873a.835.835 0 0 1 1.232-.12z" fill="#1656FE"/>
</svg>
